<svg width="128" height="38" viewBox="0 0 128 38" fill="none" xmlns="http://www.w3.org/2000/svg">
    <g style="mix-blend-mode:overlay" opacity="0.7">
        <path d="M20.1985 37C30.4229 31.4074 45.2886 12.3616 48.3324 6.52833C51.0387 1.34214 43.5605 15.1248 40.2341 29.6544C39.4133 33.2393 41.4216 31.0232 32.8098 27.3085C25.0983 23.9821 16.5644 24.6617 1.15772 28.0262C-1.36139 28.5763 26.6967 22.88 56.6472 15.4091C75.125 10.8 87.4098 11.016 127 1M54.8426 20.3889C52.9482 16.0353 47.2001 19.1738 46.697 24.735C46.0589 31.7896 56.3713 24.9422 57.9652 21.7278C58.6244 20.3984 59.2886 18.4557 57.5565 18.655C53.3287 19.1415 51.9028 28.6775 56.4708 27.1791C60.4699 25.8672 65.8107 21.0883 65.4617 19.1073C65.1164 17.147 60.2749 25.818 64.683 25.0977C69.0911 24.3774 73.9292 18.9718 73.8902 17.2785C73.8511 15.5853 68.7712 20.728 71.4247 22.9809C73.1812 24.4723 79.7785 19.5137 80.9395 18.1561C83.2765 15.4232 80.1018 13.3251 79.1824 19.3047C78.1716 25.8785 92.1952 14.6911 90.0263 14.5484C87.4489 14.3789 86.8765 21.885 90.2833 20.1888C93.6792 18.4981 98.2383 14.587 97.522 13.6383C96.7999 12.6818 94.0991 15.2956 96.2819 18.4719C98.9252 22.3182 96.0046 26.6266 93.3709 26.094C92.1771 25.8526 90.2829 24.2694 93.8021 21.2464C98.4385 17.2637 103.554 12.5125 104.514 12.9368C104.514 12.9368 102.342 15.0068 101.564 16.717C100.77 18.4628 101.605 20.275 103.904 19.7167C107.231 18.9089 108.12 16.9701 107.92 15.3996C107.72 13.829 106.073 11.9612 103.801 13.7879" stroke="white" stroke-linecap="round" stroke-linejoin="round"/>
    </g>
</svg>